<?xml version="1.0" encoding="UTF-8"?> <svg xmlns="http://www.w3.org/2000/svg" width="26" height="26" viewBox="0 0 26 26" fill="none"><g clip-path="url(#clip0_343_313)"><path fill-rule="evenodd" clip-rule="evenodd" d="M7.443 9.48559C9.91517 9.03059 11.1946 6.58009 9.52408 3.98876C9.45285 3.87933 9.34231 3.80145 9.21529 3.7712C9.08827 3.74096 8.95448 3.76067 8.84158 3.82626C8.29992 4.16209 8.84158 4.58459 9.02575 5.38734C9.92492 8.91143 3.75533 8.71643 4.62308 5.38734C4.73683 4.79476 5.05642 4.26068 5.52225 3.88043C5.90599 3.60672 6.33617 3.40485 6.79192 3.28459C7.78858 3.11126 8.26633 4.02126 8.63467 3.41459C9.29658 2.37351 4.60142 1.06051 3.14867 4.96376C2.09783 7.87034 4.79642 9.97418 7.443 9.48559ZM22.3843 15.7213C22.3533 15.6596 22.3098 15.6051 22.2566 15.5612C22.2034 15.5173 22.1417 15.4848 22.0753 15.466C22.009 15.4472 21.9394 15.4423 21.8711 15.4518C21.8027 15.4612 21.7371 15.4847 21.6783 15.5208C21.6195 15.557 21.5689 15.6049 21.5296 15.6616C21.4903 15.7183 21.4632 15.7826 21.4501 15.8503C21.4369 15.918 21.4379 15.9877 21.4531 16.055C21.4683 16.1223 21.4973 16.1857 21.5383 16.2413C21.847 16.7645 21.9911 17.3701 21.9499 17.9757C21.6899 20.047 18.6978 20.2203 17.6133 18.6809C17.4655 18.3115 17.4021 17.9138 17.4278 17.5167C17.4536 17.1197 17.5678 16.7334 17.7621 16.3862C17.9564 16.039 18.2259 15.7396 18.5509 15.5101C18.8759 15.2805 19.2481 15.1265 19.6403 15.0593C20.0713 15.0027 20.5085 15.0985 20.8763 15.3302C20.9254 15.3617 20.9804 15.383 21.0378 15.393C21.0953 15.403 21.1542 15.4014 21.2111 15.3883C21.2679 15.3751 21.3216 15.3508 21.3689 15.3166C21.4162 15.2825 21.4562 15.2392 21.4865 15.1894C21.5169 15.1395 21.5369 15.0841 21.5455 15.0264C21.5541 14.9687 21.5511 14.9099 21.5367 14.8533C21.5222 14.7968 21.4966 14.7438 21.4613 14.6973C21.4261 14.6508 21.3819 14.6118 21.3313 14.5827C20.8551 14.2991 20.3201 14.1286 19.7675 14.0843C19.215 14.04 18.6596 14.1232 18.1443 14.3274C17.629 14.5316 17.1674 14.8513 16.7951 15.262C16.4228 15.6727 16.1498 16.1634 15.997 16.6963C14.9137 19.6137 17.6567 21.6948 20.3347 21.2181C22.7743 20.7739 24.0646 18.3234 22.3843 15.7213Z" fill="#020202"></path><path fill-rule="evenodd" clip-rule="evenodd" d="M25.2571 0.638888C10.6407 9.73672 2.96425 23.6597 0.307914 24.5697C0.203638 24.6093 0.118385 24.6871 0.0695631 24.7874C0.0207411 24.8876 0.0120331 25.0027 0.0452171 25.1092C0.0784012 25.2157 0.150974 25.3055 0.248117 25.3602C0.34526 25.415 0.459645 25.4306 0.567914 25.4039C1.90041 25.0247 2.85591 23.6814 3.74425 22.8017C10.8466 15.733 16.897 7.62205 25.7998 1.47414C25.9014 1.39849 25.9703 1.28703 25.9926 1.1624C26.015 1.03777 25.989 0.909306 25.9201 0.803111C25.8511 0.696917 25.7443 0.620954 25.6214 0.590653C25.4984 0.560352 25.3686 0.577985 25.2582 0.639971" fill="#FF3301"></path></g><defs><clipPath id="clip0_343_313"><rect width="26" height="26" fill="white"></rect></clipPath></defs></svg> 